<mxfile host="Electron" modified="2025-01-13T03:15:44.271Z" agent="Mozilla/5.0 (Windows NT 10.0; Win64; x64) AppleWebKit/537.36 (KHTML, like Gecko) draw.io/22.1.16 Chrome/120.0.6099.109 Electron/28.1.0 Safari/537.36" etag="BuGDJ_n_LDczfj3jV3t3" version="22.1.16" type="device">
  <diagram name="Page-1" id="6swBhy3WXr2XPPhzgcUO">
    <mxGraphModel dx="1235" dy="731" grid="1" gridSize="10" guides="1" tooltips="1" connect="1" arrows="1" fold="1" page="1" pageScale="1" pageWidth="850" pageHeight="1100" math="0" shadow="0">
      <root>
        <mxCell id="0" />
        <mxCell id="1" parent="0" />
        <mxCell id="Cae21eePqxvKjK_i99Ik-13" value="" style="edgeStyle=orthogonalEdgeStyle;rounded=0;orthogonalLoop=1;jettySize=auto;html=1;" edge="1" parent="1" source="Cae21eePqxvKjK_i99Ik-17" target="Cae21eePqxvKjK_i99Ik-18">
          <mxGeometry relative="1" as="geometry">
            <Array as="points">
              <mxPoint x="425" y="270" />
              <mxPoint x="215" y="270" />
            </Array>
          </mxGeometry>
        </mxCell>
        <mxCell id="Cae21eePqxvKjK_i99Ik-14" value="" style="edgeStyle=orthogonalEdgeStyle;rounded=0;orthogonalLoop=1;jettySize=auto;html=1;" edge="1" parent="1" source="Cae21eePqxvKjK_i99Ik-17" target="Cae21eePqxvKjK_i99Ik-19">
          <mxGeometry relative="1" as="geometry">
            <Array as="points">
              <mxPoint x="425" y="270" />
              <mxPoint x="355" y="270" />
            </Array>
          </mxGeometry>
        </mxCell>
        <mxCell id="Cae21eePqxvKjK_i99Ik-15" value="" style="edgeStyle=orthogonalEdgeStyle;rounded=0;orthogonalLoop=1;jettySize=auto;html=1;" edge="1" parent="1" source="Cae21eePqxvKjK_i99Ik-17" target="Cae21eePqxvKjK_i99Ik-20">
          <mxGeometry relative="1" as="geometry">
            <Array as="points">
              <mxPoint x="425" y="270" />
              <mxPoint x="495" y="270" />
            </Array>
          </mxGeometry>
        </mxCell>
        <mxCell id="Cae21eePqxvKjK_i99Ik-16" value="" style="edgeStyle=orthogonalEdgeStyle;rounded=0;orthogonalLoop=1;jettySize=auto;html=1;" edge="1" parent="1" source="Cae21eePqxvKjK_i99Ik-17" target="Cae21eePqxvKjK_i99Ik-21">
          <mxGeometry relative="1" as="geometry">
            <Array as="points">
              <mxPoint x="425" y="270" />
              <mxPoint x="635" y="270" />
            </Array>
          </mxGeometry>
        </mxCell>
        <mxCell id="Cae21eePqxvKjK_i99Ik-17" value="Homepage&lt;br&gt;(/,/home)" style="rounded=1;whiteSpace=wrap;html=1;" vertex="1" parent="1">
          <mxGeometry x="365" y="170" width="120" height="60" as="geometry" />
        </mxCell>
        <mxCell id="Cae21eePqxvKjK_i99Ik-18" value="Products Page&lt;br&gt;(/products)" style="whiteSpace=wrap;html=1;rounded=1;" vertex="1" parent="1">
          <mxGeometry x="155" y="300" width="120" height="60" as="geometry" />
        </mxCell>
        <mxCell id="Cae21eePqxvKjK_i99Ik-19" value="Cart Page&lt;br&gt;(/cart)" style="whiteSpace=wrap;html=1;rounded=1;" vertex="1" parent="1">
          <mxGeometry x="295" y="300" width="120" height="60" as="geometry" />
        </mxCell>
        <mxCell id="Cae21eePqxvKjK_i99Ik-20" value="Checkout Page&lt;br&gt;(/checkout)" style="whiteSpace=wrap;html=1;rounded=1;" vertex="1" parent="1">
          <mxGeometry x="435" y="300" width="120" height="60" as="geometry" />
        </mxCell>
        <mxCell id="Cae21eePqxvKjK_i99Ik-21" value="Account Page&lt;br&gt;(/account)" style="whiteSpace=wrap;html=1;rounded=1;" vertex="1" parent="1">
          <mxGeometry x="575" y="300" width="120" height="60" as="geometry" />
        </mxCell>
        <mxCell id="Cae21eePqxvKjK_i99Ik-22" value="&lt;font style=&quot;font-size: 8px;&quot;&gt;Account page:&lt;br&gt;For viewing products you bought, suggesting others, etc.&lt;br&gt;&lt;/font&gt;" style="whiteSpace=wrap;html=1;rounded=1;" vertex="1" parent="1">
          <mxGeometry x="575" y="380" width="120" height="60" as="geometry" />
        </mxCell>
        <mxCell id="Cae21eePqxvKjK_i99Ik-23" value="&lt;b&gt;&lt;font style=&quot;font-size: 16px;&quot;&gt;Sitemap&lt;/font&gt;&lt;/b&gt;" style="text;html=1;align=center;verticalAlign=middle;resizable=0;points=[];autosize=1;strokeColor=none;fillColor=none;" vertex="1" parent="1">
          <mxGeometry x="380" y="80" width="90" height="30" as="geometry" />
        </mxCell>
        <mxCell id="Cae21eePqxvKjK_i99Ik-24" value="&lt;b&gt;&lt;font style=&quot;font-size: 16px;&quot;&gt;Wireframe&lt;/font&gt;&lt;/b&gt;" style="text;html=1;align=center;verticalAlign=middle;resizable=0;points=[];autosize=1;strokeColor=none;fillColor=none;" vertex="1" parent="1">
          <mxGeometry x="375" y="560" width="100" height="30" as="geometry" />
        </mxCell>
      </root>
    </mxGraphModel>
  </diagram>
</mxfile>
